<svg width="470" height="409" viewBox="0 0 470 409" fill="none" xmlns="http://www.w3.org/2000/svg">
<path fill-rule="evenodd" clip-rule="evenodd" d="M405.623 200.422C404.757 200.312 385.716 198.763 363.32 196.993C341.032 195.334 320.692 193.895 318.204 194.006C312.253 194.117 311.28 194.559 297.972 204.184C278.065 218.455 276.55 219.561 275.793 221.331C275.035 222.77 274.927 226.088 275.035 275.54C275.055 280.813 275.07 285.574 275.084 289.875C275.199 326.273 275.21 329.67 276.902 331.256C277.076 331.419 277.268 331.563 277.48 331.722C277.66 331.858 277.855 332.004 278.065 332.182C278.188 332.287 278.301 332.387 278.408 332.481C278.577 332.632 278.733 332.769 278.896 332.897C280.717 334.323 283.507 334.5 317.414 336.648C318.88 336.741 320.405 336.838 321.991 336.939C329.955 337.372 342.165 338.144 352.179 338.778L352.212 338.78C354.974 338.954 357.567 339.118 359.858 339.262C370.352 339.926 380.198 340.368 381.496 340.257C385.932 339.704 386.798 338.93 398.59 323.221C404.541 315.366 409.951 307.622 410.816 305.962L412.223 302.975L412.331 254.963L412.439 206.95L411.465 204.958C410.383 202.635 408.111 200.976 405.623 200.422ZM285.963 228.301C285.314 228.965 284.773 230.182 284.556 231.399C284.448 232.505 284.34 253.082 284.448 276.978C284.556 317.91 284.665 320.566 285.422 321.672C285.855 322.446 286.72 323.221 287.478 323.442C289.317 324.216 378.467 329.416 380.306 328.863C381.172 328.641 382.362 327.867 382.903 327.203L383.985 326.097L384.093 281.845C384.201 250.759 384.093 237.041 383.768 235.824C383.552 234.939 382.794 233.832 382.253 233.39C381.496 232.837 376.195 232.394 358.019 231.288C345.252 230.624 325.453 229.407 314.201 228.633L313.822 228.61C289.548 227.12 287.453 226.992 286.298 227.977C286.188 228.07 286.088 228.173 285.977 228.286L285.963 228.301ZM295.376 215.8C297.323 213.919 311.063 204.184 313.011 203.299C315.932 201.971 320.584 201.971 336.272 203.188C343.521 203.852 355.53 204.737 362.779 205.18C400.324 208.031 400.324 208.056 400.322 209.566C400.322 209.578 400.321 209.592 400.321 209.605C400.321 210.158 390.692 218.234 386.798 220.999C385.824 221.663 384.201 222.327 383.119 222.438C380.631 222.88 295.484 217.681 294.943 217.127C294.618 216.906 294.835 216.353 295.376 215.8Z" fill="black"/>
<path d="M285.963 228.301C285.314 228.965 284.773 230.182 284.556 231.399C284.448 232.505 284.34 253.082 284.448 276.978C284.556 317.91 284.665 320.566 285.422 321.672C285.855 322.446 286.72 323.221 287.478 323.442C289.317 324.216 378.467 329.416 380.306 328.863C381.172 328.641 382.362 327.867 382.903 327.203L383.985 326.097L384.093 281.845C384.201 250.759 384.093 237.041 383.768 235.824C383.552 234.939 382.794 233.832 382.253 233.39C381.496 232.837 376.195 232.394 358.019 231.288C345.252 230.624 325.453 229.407 314.201 228.633L313.822 228.61C289.548 227.12 287.453 226.992 286.298 227.977C286.188 228.07 286.088 228.173 285.977 228.286L285.963 228.301Z" fill="white"/>
<path d="M313.011 203.299C311.063 204.184 297.323 213.919 295.376 215.8C294.835 216.353 294.618 216.906 294.943 217.127C295.484 217.681 380.631 222.88 383.119 222.438C384.201 222.327 385.824 221.663 386.798 220.999C390.692 218.234 400.321 210.158 400.321 209.605L400.322 209.566C400.324 208.056 400.324 208.031 362.779 205.18C355.53 204.737 343.521 203.852 336.272 203.188C320.584 201.971 315.932 201.971 313.011 203.299Z" fill="black"/>
<path d="M318.038 185.01L318.037 185.008C314.567 185.072 311.247 185.261 306.817 187.479C303.359 189.211 299.097 192.264 292.729 196.869H292.728C282.857 203.945 277.328 207.912 274.208 210.315C271.445 212.444 269.075 214.375 267.647 217.502C266.764 219.335 266.513 221.114 266.375 222.652C266.228 224.307 266.144 226.704 266.09 230.295C265.981 237.582 265.982 250.869 266.036 275.56V275.573L266.083 289.903C266.141 307.985 266.172 318.172 266.41 323.987C266.525 326.808 266.704 329.205 267.125 331.146C267.605 333.364 268.52 335.559 270.365 337.448L270.747 337.821C271.343 338.381 271.943 338.819 272.078 338.92V338.921C272.125 338.956 272.156 338.979 272.185 339.001C272.212 339.021 272.229 339.035 272.242 339.045C272.243 339.046 272.245 339.047 272.247 339.048L272.437 339.216C272.568 339.332 272.931 339.657 273.348 339.983V339.984C276.681 342.593 280.633 343.021 285.271 343.462C289.28 343.843 295.555 344.271 305.552 344.912L316.844 345.631C318.311 345.724 319.836 345.82 321.421 345.921L321.501 345.926C329.416 346.356 341.578 347.124 351.609 347.759L351.608 347.76H351.62C351.621 347.76 351.622 347.761 351.624 347.761C351.626 347.761 351.629 347.761 351.632 347.761L351.642 347.762H351.644C354.402 347.936 356.998 348.1 359.291 348.243L359.29 348.244C364.582 348.579 369.721 348.859 373.715 349.041C375.709 349.132 377.445 349.2 378.786 349.238C379.846 349.269 381.306 349.306 382.26 349.225L382.61 349.188C383.853 349.034 385.862 348.763 388.041 347.793C390.264 346.803 392.04 345.381 393.622 343.812C396.449 341.009 400.083 336.223 405.764 328.655L406.896 327.155C409.516 323.664 411.984 320.264 413.964 317.456C415.902 314.709 417.771 311.976 418.636 310.42L418.795 310.125L418.958 309.797L420.365 306.81L421.222 302.996L421.331 254.982L421.439 206.97L420.524 202.996L419.55 201.005H419.548C417.126 195.942 412.414 192.712 407.576 191.637L406.764 191.495C405.612 191.348 386.185 189.772 364.029 188.021L363.988 188.018C352.839 187.188 342.158 186.412 333.945 185.856C329.841 185.579 326.327 185.355 323.669 185.207C321.43 185.082 319.275 184.979 318.038 185.01Z" stroke="black" stroke-width="18" stroke-linejoin="bevel"/>
<path fill-rule="evenodd" clip-rule="evenodd" d="M201.623 200.422C200.757 200.312 181.716 198.763 159.32 196.993C137.032 195.334 116.692 193.895 114.204 194.006C108.253 194.117 107.28 194.559 93.9721 204.184C74.0648 218.455 72.5502 219.561 71.7928 221.331C71.0355 222.77 70.9273 226.088 71.0355 275.54C71.055 280.813 71.0701 285.574 71.0838 289.875C71.1994 326.273 71.2102 329.67 72.9019 331.256C73.0761 331.419 73.268 331.563 73.4798 331.722C73.6601 331.858 73.8547 332.004 74.0648 332.182C74.1884 332.287 74.3009 332.387 74.4078 332.481C74.5773 332.632 74.7328 332.769 74.8961 332.897C76.7174 334.323 79.5067 334.5 113.414 336.648C114.88 336.741 116.405 336.838 117.991 336.939C125.955 337.372 138.165 338.144 148.179 338.778L148.212 338.78C150.974 338.954 153.567 339.118 155.858 339.262C166.352 339.926 176.198 340.368 177.496 340.257C181.932 339.704 182.798 338.93 194.59 323.221C200.541 315.366 205.951 307.622 206.816 305.962L208.223 302.975L208.331 254.963L208.439 206.95L207.465 204.958C206.383 202.635 204.111 200.976 201.623 200.422ZM81.9629 228.301C81.3137 228.965 80.7727 230.182 80.5564 231.399C80.4482 232.505 80.34 253.082 80.4482 276.978C80.5563 317.91 80.6645 320.566 81.4219 321.672C81.8546 322.446 82.7202 323.221 83.4775 323.442C85.3168 324.216 174.467 329.416 176.306 328.863C177.172 328.641 178.362 327.867 178.903 327.203L179.985 326.097L180.093 281.845C180.201 250.759 180.093 237.041 179.768 235.824C179.552 234.939 178.794 233.832 178.253 233.39C177.496 232.837 172.195 232.394 154.019 231.288C141.252 230.624 121.453 229.407 110.201 228.633L109.822 228.61C85.5483 227.12 83.4527 226.992 82.2976 227.977C82.1884 228.07 82.0876 228.173 81.9774 228.286L81.9629 228.301ZM91.3755 215.8C93.323 213.919 107.063 204.184 109.011 203.299C111.932 201.971 116.584 201.971 132.272 203.188C139.521 203.852 151.53 204.737 158.779 205.18C196.324 208.031 196.324 208.056 196.322 209.566C196.322 209.578 196.321 209.592 196.321 209.605C196.321 210.158 186.692 218.234 182.798 220.999C181.824 221.663 180.201 222.327 179.119 222.438C176.631 222.88 91.4837 217.681 90.9427 217.127C90.6182 216.906 90.8346 216.353 91.3755 215.8Z" fill="black"/>
<path d="M81.9629 228.301C81.3137 228.965 80.7727 230.182 80.5564 231.399C80.4482 232.505 80.34 253.082 80.4482 276.978C80.5563 317.91 80.6645 320.566 81.4219 321.672C81.8546 322.446 82.7202 323.221 83.4775 323.442C85.3168 324.216 174.467 329.416 176.306 328.863C177.172 328.641 178.362 327.867 178.903 327.203L179.985 326.097L180.093 281.845C180.201 250.759 180.093 237.041 179.768 235.824C179.552 234.939 178.794 233.832 178.253 233.39C177.496 232.837 172.195 232.394 154.019 231.288C141.252 230.624 121.453 229.407 110.201 228.633L109.822 228.61C85.5483 227.12 83.4527 226.992 82.2976 227.977C82.1884 228.07 82.0876 228.173 81.9774 228.286L81.9629 228.301Z" fill="white"/>
<path d="M109.011 203.299C107.063 204.184 93.323 213.919 91.3755 215.8C90.8346 216.353 90.6182 216.906 90.9427 217.127C91.4837 217.681 176.631 222.88 179.119 222.438C180.201 222.327 181.824 221.663 182.798 220.999C186.692 218.234 196.321 210.158 196.321 209.605L196.322 209.566C196.324 208.056 196.324 208.031 158.779 205.18C151.53 204.737 139.521 203.852 132.272 203.188C116.584 201.971 111.932 201.971 109.011 203.299Z" fill="black"/>
<path d="M114.038 185.01L114.037 185.008C110.567 185.072 107.247 185.261 102.817 187.479C99.359 189.211 95.0967 192.264 88.729 196.869H88.728C78.8573 203.945 73.328 207.912 70.2085 210.315C67.4451 212.444 65.0749 214.375 63.647 217.502C62.7642 219.335 62.513 221.114 62.3755 222.652C62.2276 224.307 62.1444 226.704 62.0903 230.295C61.9807 237.582 61.9816 250.869 62.0356 275.56V275.573L62.0835 289.903C62.1409 307.985 62.1721 318.172 62.4097 323.987C62.5249 326.808 62.7037 329.205 63.1245 331.146C63.6053 333.364 64.52 335.559 66.3647 337.448L66.7466 337.821C67.3432 338.381 67.9432 338.819 68.0776 338.92V338.921C68.1248 338.956 68.156 338.979 68.1851 339.001C68.2119 339.021 68.2293 339.035 68.2417 339.045C68.2431 339.046 68.2453 339.047 68.2466 339.048L68.437 339.216C68.5676 339.332 68.9307 339.657 69.3481 339.983V339.984C72.6806 342.593 76.6335 343.021 81.271 343.462C85.2802 343.843 91.5549 344.271 101.552 344.912L112.844 345.631C114.311 345.724 115.836 345.82 117.421 345.921L117.501 345.926C125.416 346.356 137.578 347.124 147.609 347.759L147.608 347.76H147.62C147.621 347.76 147.622 347.761 147.624 347.761C147.626 347.761 147.629 347.761 147.632 347.761L147.642 347.762H147.644C150.402 347.936 152.998 348.1 155.291 348.243L155.29 348.244C160.582 348.579 165.721 348.859 169.715 349.041C171.709 349.132 173.445 349.2 174.786 349.238C175.846 349.269 177.306 349.306 178.26 349.225L178.61 349.188C179.853 349.034 181.862 348.763 184.041 347.793C186.264 346.803 188.04 345.381 189.622 343.812C192.449 341.009 196.083 336.223 201.764 328.655L202.896 327.155C205.516 323.664 207.984 320.264 209.964 317.456C211.902 314.709 213.771 311.976 214.636 310.42L214.795 310.125L214.958 309.797L216.365 306.81L217.222 302.996L217.331 254.982L217.439 206.97L216.524 202.996L215.55 201.005H215.548C213.126 195.942 208.414 192.712 203.576 191.637L202.764 191.495C201.612 191.348 182.185 189.772 160.029 188.021L159.988 188.018C148.839 187.188 138.158 186.412 129.945 185.856C125.841 185.579 122.327 185.355 119.669 185.207C117.43 185.082 115.275 184.979 114.038 185.01Z" stroke="black" stroke-width="18" stroke-linejoin="bevel"/>
<path fill-rule="evenodd" clip-rule="evenodd" d="M290.623 73.4225C289.757 73.3118 270.716 71.763 248.32 69.993C226.032 68.3335 205.692 66.8954 203.204 67.006C197.253 67.1166 196.28 67.5591 182.972 77.1839C163.065 91.455 161.55 92.5613 160.793 94.3313C160.035 95.7695 159.927 99.0884 160.035 148.54C160.055 153.813 160.07 158.574 160.084 162.875C160.199 199.273 160.21 202.67 161.902 204.256C162.076 204.419 162.268 204.563 162.48 204.722C162.66 204.858 162.855 205.004 163.065 205.182C163.188 205.287 163.301 205.387 163.408 205.481C163.577 205.632 163.733 205.769 163.896 205.897C165.717 207.323 168.507 207.5 202.414 209.648C203.88 209.741 205.405 209.838 206.991 209.939C214.955 210.372 227.165 211.144 237.179 211.778L237.212 211.78C239.974 211.954 242.567 212.118 244.858 212.262C255.352 212.926 265.198 213.368 266.496 213.257C270.932 212.704 271.798 211.93 283.59 196.221C289.541 188.366 294.951 180.622 295.816 178.962L297.223 175.975L297.331 127.963L297.439 79.9496L296.465 77.9583C295.383 75.635 293.111 73.9756 290.623 73.4225ZM170.963 101.301C170.314 101.965 169.773 103.182 169.556 104.399C169.448 105.505 169.34 126.082 169.448 149.978C169.556 190.91 169.665 193.566 170.422 194.672C170.855 195.446 171.72 196.221 172.478 196.442C174.317 197.216 263.467 202.416 265.306 201.863C266.172 201.641 267.362 200.867 267.903 200.203L268.985 199.097L269.093 154.845C269.201 123.759 269.093 110.041 268.768 108.824C268.552 107.939 267.794 106.832 267.253 106.39C266.496 105.837 261.195 105.394 243.019 104.288C230.252 103.624 210.453 102.407 199.201 101.633L198.822 101.61C174.548 100.12 172.453 99.9918 171.298 100.977C171.188 101.07 171.088 101.173 170.977 101.286L170.963 101.301ZM180.376 88.7999C182.323 86.9192 196.063 77.1839 198.011 76.2988C200.932 74.9713 205.584 74.9713 221.272 76.1882C228.521 76.852 240.53 77.737 247.779 78.1795C285.324 81.0314 285.324 81.0557 285.322 82.5655C285.322 82.5785 285.321 82.5915 285.321 82.6047C285.321 83.1578 275.692 91.2337 271.798 93.9995C270.824 94.6632 269.201 95.327 268.119 95.4376C265.631 95.8801 180.484 90.6806 179.943 90.1274C179.618 89.9062 179.835 89.353 180.376 88.7999Z" fill="black"/>
<path d="M170.963 101.301C170.314 101.965 169.773 103.182 169.556 104.399C169.448 105.505 169.34 126.082 169.448 149.978C169.556 190.91 169.665 193.566 170.422 194.672C170.855 195.446 171.72 196.221 172.478 196.442C174.317 197.216 263.467 202.416 265.306 201.863C266.172 201.641 267.362 200.867 267.903 200.203L268.985 199.097L269.093 154.845C269.201 123.759 269.093 110.041 268.768 108.824C268.552 107.939 267.794 106.832 267.253 106.39C266.496 105.837 261.195 105.394 243.019 104.288C230.252 103.624 210.453 102.407 199.201 101.633L198.822 101.61C174.548 100.12 172.453 99.9918 171.298 100.977C171.188 101.07 171.088 101.173 170.977 101.286L170.963 101.301Z" fill="white"/>
<path d="M198.011 76.2988C196.063 77.1839 182.323 86.9192 180.376 88.7999C179.835 89.353 179.618 89.9062 179.943 90.1274C180.484 90.6806 265.631 95.8801 268.119 95.4376C269.201 95.327 270.824 94.6632 271.798 93.9995C275.692 91.2337 285.321 83.1578 285.321 82.6047L285.322 82.5655C285.324 81.0557 285.324 81.0314 247.779 78.1795C240.53 77.737 228.521 76.852 221.272 76.1882C205.584 74.9713 200.932 74.9713 198.011 76.2988Z" fill="black"/>
<path d="M203.038 58.0098L203.037 58.0078C199.567 58.0723 196.247 58.2608 191.817 60.4795C188.359 62.2113 184.097 65.2638 177.729 69.8691H177.728C167.857 76.9453 162.328 80.9122 159.208 83.3154C156.445 85.4444 154.075 87.3745 152.647 90.502C151.764 92.3349 151.513 94.1138 151.375 95.6523C151.228 97.307 151.144 99.7038 151.09 103.295C150.981 110.582 150.982 123.869 151.036 148.56V148.573L151.083 162.903C151.141 180.985 151.172 191.172 151.41 196.987C151.525 199.808 151.704 202.205 152.125 204.146C152.605 206.364 153.52 208.559 155.365 210.448L155.747 210.821C156.343 211.381 156.943 211.819 157.078 211.92V211.921C157.125 211.956 157.156 211.979 157.185 212.001C157.212 212.021 157.229 212.035 157.242 212.045C157.243 212.046 157.245 212.047 157.247 212.048L157.437 212.216C157.568 212.332 157.931 212.657 158.348 212.983V212.984C161.681 215.593 165.633 216.021 170.271 216.462C174.28 216.843 180.555 217.271 190.552 217.912L201.844 218.631C203.311 218.724 204.836 218.82 206.421 218.921L206.501 218.926C214.416 219.356 226.578 220.124 236.609 220.759L236.608 220.76H236.62C236.621 220.76 236.622 220.761 236.624 220.761C236.626 220.761 236.629 220.761 236.632 220.761L236.642 220.762H236.644C239.402 220.936 241.998 221.1 244.291 221.243L244.29 221.244C249.582 221.579 254.721 221.859 258.715 222.041C260.709 222.132 262.445 222.2 263.786 222.238C264.846 222.269 266.306 222.306 267.26 222.225L267.61 222.188C268.853 222.034 270.862 221.763 273.041 220.793C275.264 219.803 277.04 218.381 278.622 216.812C281.449 214.009 285.083 209.223 290.764 201.655L291.896 200.155C294.516 196.664 296.984 193.264 298.964 190.456C300.902 187.709 302.771 184.976 303.636 183.42L303.795 183.125L303.958 182.797L305.365 179.81L306.222 175.996L306.331 127.982L306.439 79.9697L305.524 75.9961L304.55 74.0049H304.548C302.126 68.9417 297.414 65.7123 292.576 64.6367L291.764 64.4951C290.612 64.3479 271.185 62.7716 249.029 61.0205L248.988 61.0176C237.839 60.1875 227.158 59.4117 218.945 58.8564C214.841 58.579 211.327 58.3552 208.669 58.207C206.43 58.0822 204.275 57.9789 203.038 58.0098Z" stroke="black" stroke-width="18" stroke-linejoin="bevel"/>
</svg>
