<svg width="325" height="253" viewBox="0 0 325 253" fill="none" xmlns="http://www.w3.org/2000/svg">
<path d="M56.7089 116C59.9468 116 105.226 116 111.696 120.043C118.165 124.086 150.512 169.371 149.703 184.735C148.894 200.097 111.712 251.022 111.696 251.044C111.473 251.051 29.2054 253.467 22.745 251.044C16.2756 248.617 -1.51373 213.038 0.103407 206.568C1.72214 200.097 53.4738 116.001 56.7089 116Z" fill="black"/>
<path d="M13 204.501C13 202.095 58.6018 130.501 63 130.501C67.3982 130.501 104 130.114 104 133C104 135.886 37.1417 244.481 34.0001 244C30.8585 243.519 13 206.906 13 204.501Z" fill="white"/>
<path d="M219.913 3.66651C213.908 -1.8712 152.151 -0.527452 146.208 3.66749C140.262 7.86464 99.7356 53.9539 110.952 77.188C122.169 100.423 200.685 251.842 222.318 251.844C243.95 251.844 259.973 251.845 276 251.844C292.026 251.844 324.872 198.166 324.872 180.541C324.869 162.914 225.917 9.20462 219.913 3.66651Z" fill="black"/>
<path d="M256.156 195.681C255.838 200.234 230.298 238.635 226.741 238.688C223.183 238.742 124.621 76.6415 124.198 71.1498C123.774 65.6581 147.811 21.8091 152.37 22.7412C156.929 23.6733 256.475 191.127 256.156 195.681Z" fill="white"/>
</svg>
