<svg width="470" height="409" viewBox="0 0 470 409" fill="none" xmlns="http://www.w3.org/2000/svg">
<path fill-rule="evenodd" clip-rule="evenodd" d="M409.561 198.981C408.616 198.861 387.834 197.177 363.392 195.253C339.067 193.45 316.868 191.886 314.153 192.007C307.658 192.127 306.595 192.608 292.072 203.07C270.345 218.583 268.692 219.785 267.865 221.709C267.039 223.272 266.921 226.88 267.039 280.633C267.06 286.366 267.077 291.541 267.092 296.216C267.218 335.78 267.229 339.473 269.076 341.197C269.266 341.375 269.475 341.531 269.706 341.704C269.903 341.851 270.116 342.01 270.345 342.203C270.48 342.317 270.603 342.426 270.719 342.529C270.904 342.692 271.074 342.842 271.252 342.981C273.24 344.531 276.284 344.723 313.29 347.059C314.891 347.16 316.555 347.265 318.285 347.374C326.977 347.845 340.303 348.684 351.233 349.373L351.269 349.375C354.283 349.565 357.113 349.743 359.613 349.899C371.067 350.621 381.812 351.102 383.229 350.982C388.07 350.38 389.015 349.539 401.886 332.463C408.38 323.925 414.284 315.507 415.229 313.703L416.764 310.456L416.882 258.266L417 206.076L415.937 203.912C414.756 201.386 412.277 199.582 409.561 198.981ZM278.965 229.285C278.256 230.007 277.666 231.329 277.43 232.652C277.312 233.855 277.194 256.222 277.312 282.197C277.43 326.69 277.548 329.576 278.374 330.779C278.847 331.621 279.791 332.463 280.618 332.703C282.625 333.545 379.923 339.197 381.93 338.595C382.875 338.355 384.174 337.513 384.764 336.792L385.945 335.589L386.063 287.488C386.181 253.697 386.063 238.785 385.709 237.462C385.473 236.5 384.646 235.298 384.056 234.817C383.229 234.215 377.443 233.734 357.606 232.532C343.672 231.81 322.064 230.488 309.784 229.646L309.37 229.621C282.878 228.002 280.591 227.862 279.33 228.933C279.211 229.034 279.101 229.146 278.981 229.269L278.965 229.285ZM289.238 215.696C291.363 213.652 306.359 203.07 308.485 202.108C311.673 200.665 316.75 200.665 333.872 201.988C341.783 202.709 354.89 203.671 362.801 204.152C403.778 207.252 403.778 207.278 403.775 208.92C403.775 208.934 403.775 208.948 403.775 208.962C403.775 209.564 393.266 218.342 389.015 221.348C387.952 222.07 386.181 222.791 385 222.912C382.285 223.393 289.356 217.741 288.765 217.139C288.411 216.899 288.647 216.298 289.238 215.696Z" fill="black"/>
<path d="M278.965 229.285C278.256 230.007 277.666 231.329 277.43 232.652C277.312 233.855 277.194 256.222 277.312 282.197C277.43 326.69 277.548 329.576 278.374 330.779C278.847 331.621 279.791 332.463 280.618 332.703C282.625 333.545 379.923 339.197 381.93 338.595C382.875 338.355 384.174 337.513 384.764 336.792L385.945 335.589L386.063 287.488C386.181 253.697 386.063 238.785 385.709 237.462C385.473 236.5 384.646 235.298 384.056 234.817C383.229 234.215 377.443 233.734 357.606 232.532C343.672 231.81 322.064 230.488 309.784 229.646L309.37 229.621C282.878 228.002 280.591 227.862 279.33 228.933C279.211 229.034 279.101 229.146 278.981 229.269L278.965 229.285Z" fill="white"/>
<path d="M308.485 202.108C306.359 203.07 291.363 213.652 289.238 215.696C288.647 216.298 288.411 216.899 288.765 217.139C289.356 217.741 382.285 223.393 385 222.912C386.181 222.791 387.952 222.07 389.015 221.348C393.266 218.342 403.775 209.564 403.775 208.962L403.775 208.92C403.778 207.278 403.778 207.252 362.801 204.152C354.89 203.671 341.783 202.709 333.872 201.988C316.75 200.665 311.673 200.665 308.485 202.108Z" fill="black"/>
<path d="M313.987 183.011L313.986 183.008C310.248 183.077 306.774 183.278 302.105 185.606C298.406 187.452 293.818 190.72 286.843 195.745H286.842C276.061 203.442 270.043 207.743 266.652 210.345C263.631 212.663 261.198 214.655 259.73 217.854C258.82 219.728 258.555 221.561 258.407 223.212C258.249 224.98 258.158 227.56 258.099 231.464C257.979 239.377 257.98 253.812 258.039 280.653V280.667L258.092 296.244C258.155 315.908 258.188 326.962 258.446 333.266C258.572 336.33 258.767 338.879 259.211 340.92C259.715 343.234 260.66 345.474 262.544 347.396L262.934 347.775C263.546 348.347 264.163 348.797 264.317 348.912H264.318C264.424 348.991 264.469 349.026 264.509 349.057C264.531 349.074 264.542 349.082 264.545 349.085L264.763 349.275C264.872 349.372 265.111 349.586 265.406 349.829L265.718 350.078C269.131 352.739 273.182 353.202 278.291 353.686C282.654 354.099 289.488 354.563 300.396 355.26L312.724 356.041C314.324 356.142 315.988 356.247 317.718 356.356L317.799 356.36C322.12 356.594 327.601 356.922 333.369 357.275L350.667 358.355C350.671 358.356 350.675 358.356 350.682 358.356C350.686 358.357 350.693 358.356 350.699 358.356L350.701 358.357H350.703C353.714 358.547 356.546 358.725 359.049 358.881L359.048 358.882C364.82 359.245 370.423 359.549 374.776 359.747C376.949 359.846 378.839 359.919 380.296 359.961C381.326 359.99 382.63 360.024 383.598 359.976L383.99 359.949L384.339 359.913C385.682 359.746 387.769 359.463 390.024 358.463C392.327 357.442 394.186 355.967 395.871 354.303C398.909 351.302 402.84 346.149 409.073 337.88V337.879C412.373 333.54 415.524 329.231 417.983 325.759C420.109 322.757 422.117 319.828 423.033 318.188L423.202 317.878L423.365 317.55L424.9 314.303L425.764 310.477L425.882 258.286L426 206.097L425.079 202.109L424.017 199.945H424.015C421.486 194.676 416.561 191.313 411.507 190.194L410.697 190.054L409.335 189.925C404.129 189.467 385.276 187.948 364.098 186.281L364.058 186.278C351.89 185.376 340.235 184.532 331.273 183.929C326.796 183.627 322.966 183.384 320.07 183.224C317.599 183.086 315.285 182.978 313.987 183.011Z" stroke="black" stroke-width="18" stroke-linejoin="bevel"/>
<path fill-rule="evenodd" clip-rule="evenodd" d="M213.66 192.937C212.728 192.818 192.223 191.145 168.107 189.233C144.107 187.44 122.204 185.887 119.524 186.006C113.116 186.126 112.068 186.604 97.7374 197C76.3004 212.415 74.6693 213.61 73.8538 215.522C73.0383 217.076 72.9218 220.661 73.0383 274.076C73.0593 279.772 73.0756 284.915 73.0903 289.56C73.2148 328.876 73.2264 332.545 75.0481 334.259C75.2357 334.435 75.4424 334.591 75.6704 334.762C75.8645 334.909 76.0741 335.066 76.3004 335.258C76.4334 335.372 76.5546 335.48 76.6698 335.582C76.8522 335.745 77.0197 335.893 77.1955 336.032C79.1568 337.572 82.1604 337.763 118.673 340.083C120.252 340.184 121.894 340.288 123.602 340.397C132.178 340.865 145.326 341.699 156.11 342.383L156.145 342.385C159.119 342.574 161.912 342.751 164.378 342.906C175.679 343.623 186.281 344.101 187.679 343.982C192.456 343.384 193.388 342.548 206.087 325.579C212.495 317.095 218.32 308.73 219.252 306.938L220.767 303.711L220.883 251.849L221 199.988L219.951 197.837C218.786 195.327 216.34 193.535 213.66 192.937ZM84.8053 223.051C84.1063 223.768 83.5238 225.082 83.2907 226.397C83.1742 227.591 83.0577 249.818 83.1742 275.629C83.2907 319.843 83.4072 322.711 84.2228 323.906C84.6888 324.743 85.6208 325.579 86.4364 325.818C88.417 326.655 184.417 332.271 186.398 331.673C187.33 331.434 188.612 330.598 189.194 329.881L190.359 328.686L190.476 280.887C190.592 247.309 190.476 232.491 190.126 231.176C189.893 230.22 189.078 229.025 188.495 228.547C187.679 227.95 181.971 227.472 162.398 226.277C148.65 225.56 127.33 224.246 115.213 223.409L114.805 223.384C88.6663 221.775 86.4096 221.636 85.1658 222.701C85.0482 222.801 84.9397 222.913 84.8209 223.035L84.8053 223.051ZM94.9413 209.547C97.0384 207.516 111.835 197 113.932 196.044C117.077 194.61 122.087 194.61 138.98 195.925C146.786 196.642 159.718 197.598 167.524 198.076C207.954 201.156 207.954 201.182 207.951 202.813C207.951 202.827 207.951 202.841 207.951 202.856C207.951 203.453 197.582 212.176 193.388 215.164C192.34 215.881 190.592 216.598 189.427 216.717C186.747 217.195 95.0578 211.579 94.4752 210.981C94.1257 210.742 94.3587 210.145 94.9413 209.547Z" fill="black"/>
<path d="M84.8053 223.051C84.1063 223.768 83.5238 225.082 83.2907 226.397C83.1742 227.591 83.0577 249.818 83.1742 275.629C83.2907 319.843 83.4072 322.711 84.2228 323.906C84.6888 324.743 85.6208 325.579 86.4364 325.818C88.417 326.655 184.417 332.271 186.398 331.673C187.33 331.434 188.612 330.598 189.194 329.881L190.359 328.686L190.476 280.887C190.592 247.309 190.476 232.491 190.126 231.176C189.893 230.22 189.078 229.025 188.495 228.547C187.679 227.95 181.971 227.472 162.398 226.277C148.65 225.56 127.33 224.246 115.213 223.409L114.805 223.384C88.6663 221.775 86.4096 221.636 85.1658 222.701C85.0482 222.801 84.9397 222.913 84.8209 223.035L84.8053 223.051Z" fill="white"/>
<path d="M113.932 196.044C111.835 197 97.0384 207.516 94.9413 209.547C94.3587 210.145 94.1257 210.742 94.4752 210.981C95.0578 211.579 186.747 217.195 189.427 216.717C190.592 216.598 192.34 215.881 193.388 215.164C197.582 212.176 207.951 203.453 207.951 202.856L207.951 202.813C207.954 201.182 207.954 201.156 167.524 198.076C159.718 197.598 146.786 196.642 138.98 195.925C122.087 194.61 117.077 194.61 113.932 196.044Z" fill="black"/>
<path d="M119.357 177.011L119.356 177.008C115.656 177.077 112.199 177.278 107.562 179.607C103.899 181.447 99.362 184.703 92.4834 189.693L85.3535 194.823C79.0391 199.373 75.0698 202.263 72.5596 204.203C69.5706 206.513 67.155 208.505 65.7021 211.703C64.8077 213.564 64.5471 215.381 64.4014 217.017C64.2448 218.773 64.1558 221.337 64.0977 225.216C63.9797 233.079 63.9799 247.423 64.0381 274.096V274.109L64.0908 289.589C64.1527 309.129 64.1854 320.113 64.4404 326.377C64.5644 329.422 64.7561 331.955 65.1943 333.982C65.6907 336.279 66.6243 338.513 68.4951 340.435L68.8828 340.814C69.4919 341.387 70.1054 341.838 70.2568 341.952H70.2578C70.3614 342.03 70.4051 342.064 70.4434 342.094C70.4525 342.101 70.4606 342.106 70.4658 342.11C70.5181 342.155 70.5754 342.207 70.6885 342.308H70.6895C70.7972 342.403 71.034 342.617 71.3271 342.86L71.6367 343.109C75.0412 345.783 79.0879 346.243 84.123 346.724C88.4302 347.134 95.1763 347.598 105.94 348.29L118.102 349.065C119.681 349.166 121.323 349.27 123.03 349.379L123.111 349.384C131.638 349.849 144.738 350.679 155.538 351.364L155.537 351.365H155.55C155.551 351.365 155.552 351.366 155.554 351.366C155.556 351.366 155.56 351.366 155.563 351.366L155.573 351.367H155.575C158.548 351.556 161.344 351.734 163.814 351.889L163.815 351.888C169.509 352.249 175.036 352.551 179.331 352.748C181.476 352.846 183.342 352.92 184.78 352.961C185.938 352.994 187.465 353.033 188.446 352.949L188.797 352.912C190.126 352.746 192.206 352.462 194.455 351.458C196.748 350.434 198.593 348.957 200.26 347.3C203.258 344.317 207.135 339.2 213.27 331.003L214.485 329.385C217.303 325.619 219.956 321.953 222.085 318.926C224.182 315.943 226.166 313.031 227.071 311.398L227.237 311.09L227.399 310.762L228.914 307.535L229.767 303.731L229.884 251.869L230 200.008L229.09 196.044L228.041 193.893H228.039C225.539 188.647 220.658 185.277 215.619 184.153L214.805 184.011C213.586 183.854 192.695 182.154 168.818 180.261L168.777 180.258C156.772 179.361 145.271 178.522 136.429 177.923C132.011 177.623 128.231 177.381 125.373 177.222C122.94 177.086 120.649 176.978 119.357 177.011Z" stroke="black" stroke-width="18" stroke-linejoin="bevel"/>
<path fill-rule="evenodd" clip-rule="evenodd" d="M300.759 60.8495C299.84 60.7315 279.612 59.0797 255.821 57.192C232.146 55.4222 210.539 53.8884 207.895 54.0064C201.574 54.1244 200.54 54.5963 186.403 64.861C165.256 80.081 163.647 81.2608 162.842 83.1486C162.038 84.6824 161.923 88.2219 162.038 140.961C162.059 146.585 162.075 151.663 162.089 156.249C162.212 195.067 162.223 198.69 164.02 200.382C164.205 200.556 164.409 200.71 164.634 200.879C164.826 201.024 165.033 201.179 165.256 201.369C165.387 201.481 165.507 201.588 165.62 201.689C165.8 201.849 165.965 201.996 166.139 202.132C168.074 203.653 171.037 203.842 207.056 206.133C208.614 206.232 210.234 206.335 211.918 206.442C220.378 206.904 233.349 207.728 243.986 208.404L244.022 208.406C246.955 208.592 249.71 208.767 252.144 208.92C263.292 209.628 273.751 210.1 275.13 209.982C279.842 209.392 280.761 208.566 293.289 191.812C299.61 183.435 305.357 175.176 306.276 173.407L307.77 170.221L307.885 119.016L308 67.8106L306.966 65.6869C305.816 63.2092 303.403 61.4394 300.759 60.8495ZM173.646 90.5816C172.956 91.2895 172.382 92.5873 172.152 93.8852C172.037 95.065 171.922 117.01 172.037 142.495C172.152 186.149 172.267 188.981 173.071 190.161C173.531 190.986 174.45 191.812 175.255 192.048C177.209 192.874 271.912 198.419 273.866 197.83C274.785 197.594 276.049 196.768 276.624 196.06L277.773 194.88L277.888 147.686C278.003 114.532 277.888 99.9024 277.543 98.6045C277.313 97.6607 276.509 96.4808 275.934 96.0089C275.13 95.419 269.498 94.947 250.19 93.7672C236.628 93.0593 215.596 91.7614 203.643 90.9355L203.24 90.9107C177.455 89.3225 175.228 89.1854 174.001 90.2362C173.885 90.3355 173.778 90.4454 173.661 90.5657L173.646 90.5816ZM183.645 77.2493C185.714 75.2436 200.31 64.861 202.378 63.9171C205.482 62.5013 210.424 62.5013 227.089 63.7991C234.789 64.507 247.546 65.4509 255.247 65.9228C295.131 68.9644 295.131 68.9902 295.128 70.6005C295.128 70.6143 295.128 70.6282 295.128 70.6422C295.128 71.2321 284.899 79.845 280.761 82.7946C279.727 83.5025 278.003 84.2104 276.854 84.3284C274.21 84.8004 183.76 79.2551 183.185 78.6651C182.84 78.4292 183.07 77.8393 183.645 77.2493Z" fill="black"/>
<path d="M173.646 90.5816C172.956 91.2895 172.382 92.5873 172.152 93.8852C172.037 95.065 171.922 117.01 172.037 142.495C172.152 186.149 172.267 188.981 173.071 190.161C173.531 190.986 174.45 191.812 175.255 192.048C177.209 192.874 271.912 198.419 273.866 197.83C274.785 197.594 276.049 196.768 276.624 196.06L277.773 194.88L277.888 147.686C278.003 114.532 277.888 99.9024 277.543 98.6045C277.313 97.6607 276.509 96.4808 275.934 96.0089C275.13 95.419 269.498 94.947 250.19 93.7672C236.628 93.0593 215.596 91.7614 203.643 90.9355L203.24 90.9107C177.455 89.3225 175.228 89.1854 174.001 90.2362C173.885 90.3355 173.778 90.4454 173.661 90.5657L173.646 90.5816Z" fill="white"/>
<path d="M202.378 63.9171C200.31 64.861 185.714 75.2436 183.645 77.2493C183.07 77.8393 182.84 78.4292 183.185 78.6651C183.76 79.2551 274.21 84.8004 276.854 84.3284C278.003 84.2104 279.727 83.5025 280.761 82.7946C284.899 79.845 295.128 71.2321 295.128 70.6422L295.128 70.6005C295.131 68.9902 295.131 68.9644 255.247 65.9228C247.546 65.4509 234.789 64.507 227.089 63.7991C210.424 62.5013 205.482 62.5013 202.378 63.9171Z" fill="black"/>
<path d="M207.729 45.0107L207.728 45.0078C204.07 45.0761 200.637 45.2752 196.037 47.5879C192.408 49.4128 187.914 52.6414 181.115 57.5781C170.643 65.1149 164.789 69.3328 161.488 71.8857C158.548 74.16 156.148 76.137 154.7 79.3096C153.801 81.1721 153.541 82.9898 153.396 84.6143C153.242 86.3531 153.154 88.8875 153.097 92.7178C152.98 100.483 152.981 114.646 153.038 140.98V140.994L153.089 156.278C153.15 175.57 153.183 186.417 153.435 192.604C153.557 195.61 153.746 198.119 154.181 200.131C154.673 202.412 155.601 204.64 157.466 206.557L157.852 206.936C158.458 207.507 159.07 207.956 159.218 208.067H159.219C159.321 208.145 159.364 208.177 159.4 208.206C159.409 208.213 159.416 208.217 159.421 208.221C159.471 208.264 159.527 208.314 159.637 208.411V208.412C159.743 208.506 159.978 208.718 160.27 208.96L160.577 209.208C163.969 211.874 168 212.329 172.96 212.803C177.211 213.209 183.868 213.665 194.487 214.349L206.484 215.115C208.042 215.214 209.662 215.317 211.346 215.424L211.427 215.429C219.837 215.888 232.761 216.708 243.415 217.385L243.414 217.386H243.423C243.425 217.386 243.427 217.387 243.43 217.387C243.433 217.387 243.437 217.386 243.44 217.387L243.449 217.388H243.451C246.382 217.574 249.139 217.748 251.574 217.901L251.573 217.902C257.193 218.259 262.648 218.557 266.888 218.751C269.004 218.848 270.845 218.921 272.266 218.962C273.404 218.995 274.92 219.033 275.896 218.949L276.248 218.912C277.561 218.748 279.629 218.466 281.865 217.467C284.146 216.448 285.979 214.978 287.629 213.336C290.598 210.379 294.435 205.31 300.497 197.202V197.201C303.71 192.943 306.777 188.714 309.172 185.306C311.377 182.167 313.462 179.097 314.263 177.556L314.425 177.229L315.918 174.043L316.771 170.241L316.885 119.036L317 67.8311L316.091 63.8701L315.057 61.7461H315.056C312.573 56.5321 307.725 53.1825 302.72 52.0654L301.905 51.9229L300.575 51.7959C295.5 51.3453 277.14 49.8549 256.533 48.2197L256.492 48.2168L247.736 47.5664C239.141 46.9324 231.123 46.3562 224.581 45.9121C220.223 45.6163 216.492 45.3775 213.672 45.2197C211.276 45.0857 209.011 44.9782 207.729 45.0107Z" stroke="black" stroke-width="18" stroke-linejoin="bevel"/>
</svg>
