<svg width="470" height="409" viewBox="0 0 470 409" fill="none" xmlns="http://www.w3.org/2000/svg">
<path fill-rule="evenodd" clip-rule="evenodd" d="M402.809 210.718C401.896 210.602 381.807 208.982 358.179 207.131C334.665 205.395 313.206 203.891 310.581 204.006C304.303 204.122 303.276 204.585 289.236 214.652C268.233 229.579 266.636 230.737 265.836 232.588C265.037 234.092 264.923 237.564 265.037 289.289C265.058 294.805 265.074 299.785 265.088 304.283C265.21 342.354 265.222 345.908 267.007 347.567C267.19 347.738 267.393 347.888 267.616 348.055C267.806 348.196 268.012 348.349 268.234 348.535C268.364 348.645 268.483 348.75 268.595 348.849C268.774 349.006 268.938 349.15 269.11 349.284C271.032 350.775 273.975 350.96 309.747 353.207C311.294 353.305 312.903 353.406 314.576 353.511C322.978 353.964 335.86 354.772 346.425 355.434L346.46 355.437C349.373 355.619 352.11 355.791 354.526 355.941C365.598 356.635 375.985 357.098 377.355 356.982C382.035 356.404 382.948 355.594 395.39 339.162C401.668 330.946 407.375 322.846 408.288 321.11L409.772 317.986L409.886 267.766L410 217.545L408.973 215.462C407.831 213.032 405.434 211.296 402.809 210.718ZM276.566 239.878C275.881 240.572 275.31 241.845 275.082 243.118C274.968 244.275 274.854 265.798 274.968 290.793C275.082 333.608 275.196 336.385 275.995 337.542C276.452 338.352 277.365 339.162 278.164 339.393C280.104 340.203 374.159 345.642 376.099 345.064C377.012 344.832 378.268 344.022 378.839 343.328L379.98 342.171L380.094 295.884C380.208 263.368 380.094 249.02 379.752 247.747C379.524 246.821 378.725 245.664 378.154 245.201C377.355 244.622 371.762 244.16 352.586 243.002C339.117 242.308 318.228 241.035 306.358 240.225L305.957 240.201C280.349 238.643 278.138 238.509 276.919 239.539C276.804 239.637 276.698 239.745 276.581 239.863L276.566 239.878ZM286.496 226.802C288.551 224.835 303.047 214.652 305.102 213.726C308.184 212.338 313.092 212.338 329.643 213.611C337.29 214.305 349.96 215.231 357.608 215.694C397.219 218.677 397.219 218.702 397.216 220.281C397.216 220.295 397.216 220.308 397.216 220.322C397.216 220.901 387.057 229.348 382.948 232.241C381.921 232.935 380.208 233.629 379.067 233.745C376.442 234.208 286.611 228.769 286.04 228.191C285.697 227.959 285.926 227.381 286.496 226.802Z" fill="black"/>
<path d="M276.566 239.878C275.881 240.572 275.31 241.845 275.082 243.118C274.968 244.275 274.854 265.798 274.968 290.793C275.082 333.608 275.196 336.385 275.995 337.542C276.452 338.352 277.365 339.162 278.164 339.393C280.104 340.203 374.159 345.642 376.099 345.064C377.012 344.832 378.268 344.022 378.839 343.328L379.98 342.171L380.094 295.884C380.208 263.368 380.094 249.02 379.752 247.747C379.524 246.821 378.725 245.664 378.154 245.201C377.355 244.622 371.762 244.16 352.586 243.002C339.117 242.308 318.228 241.035 306.358 240.225L305.957 240.201C280.349 238.643 278.138 238.509 276.919 239.539C276.804 239.637 276.698 239.745 276.581 239.863L276.566 239.878Z" fill="white"/>
<path d="M305.102 213.726C303.047 214.652 288.551 224.835 286.496 226.802C285.926 227.381 285.697 227.959 286.04 228.191C286.611 228.769 376.442 234.208 379.067 233.745C380.208 233.629 381.921 232.935 382.948 232.241C387.057 229.348 397.216 220.901 397.216 220.322L397.216 220.281C397.219 218.702 397.219 218.677 357.608 215.694C349.96 215.231 337.29 214.305 329.643 213.611C313.092 212.338 308.184 212.338 305.102 213.726Z" fill="black"/>
<path d="M310.416 195.01L310.415 195.008C306.788 195.075 303.384 195.268 298.816 197.536C295.209 199.327 290.743 202.497 283.991 207.338H283.992C273.593 214.729 267.776 218.866 264.497 221.371C261.584 223.596 259.167 225.556 257.707 228.723C256.801 230.583 256.539 232.398 256.395 234C256.24 235.717 256.153 238.212 256.096 241.969C255.98 249.588 255.98 263.482 256.037 289.309V289.322L256.089 304.312C256.149 323.229 256.181 333.875 256.432 339.95C256.553 342.9 256.742 345.382 257.179 347.381C257.677 349.659 258.618 351.879 260.492 353.782L260.879 354.159C261.182 354.441 261.487 354.693 261.734 354.888L262.243 355.275C262.345 355.351 262.388 355.382 262.424 355.41C262.427 355.412 262.43 355.414 262.433 355.416L262.653 355.608C262.758 355.701 262.994 355.91 263.285 356.148L263.592 356.394C266.969 359.015 270.97 359.458 275.89 359.922C280.111 360.32 286.722 360.768 297.268 361.438L309.183 362.189C310.73 362.287 312.338 362.388 314.011 362.493L314.091 362.498C322.444 362.948 335.279 363.752 345.86 364.416L345.859 364.417H345.871C345.872 364.417 345.874 364.418 345.876 364.418C345.878 364.418 345.88 364.418 345.883 364.418L345.895 364.419H345.896C348.809 364.602 351.549 364.774 353.969 364.924L353.97 364.923C359.548 365.273 364.963 365.565 369.172 365.756C371.273 365.851 373.102 365.922 374.512 365.962C375.502 365.99 376.776 366.023 377.727 365.976L378.112 365.95L378.459 365.914C379.761 365.753 381.811 365.478 384.031 364.498C386.299 363.497 388.125 362.053 389.771 360.435C392.725 357.53 396.537 352.556 402.541 344.626V344.627C405.742 340.438 408.798 336.277 411.184 332.924C413.233 330.043 415.19 327.206 416.088 325.604L416.253 325.301L416.418 324.972L417.901 321.848L418.771 318.007L419 217.565L418.071 213.564L417.044 211.481C414.547 206.302 409.696 203.02 404.746 201.929L403.94 201.789C402.743 201.637 382.272 199.991 358.882 198.158L358.842 198.155L350.146 197.518C341.608 196.896 333.646 196.33 327.148 195.895C322.82 195.604 319.116 195.37 316.315 195.215C313.934 195.083 311.687 194.978 310.416 195.01Z" stroke="black" stroke-width="18" stroke-linejoin="bevel"/>
<path fill-rule="evenodd" clip-rule="evenodd" d="M199.404 200.235C198.566 200.127 180.14 198.624 158.467 196.906C136.9 195.295 117.217 193.898 114.809 194.006C109.05 194.113 108.108 194.543 95.2302 203.886C75.9659 217.74 74.5002 218.814 73.7673 220.533C73.0344 221.929 72.9297 225.151 73.0344 273.157C73.0533 278.276 73.0679 282.898 73.0812 287.073C73.1931 322.407 73.2035 325.705 74.8405 327.245C75.0091 327.404 75.1948 327.544 75.3997 327.698C75.5742 327.829 75.7625 327.971 75.9659 328.144C76.0855 328.246 76.1943 328.343 76.2978 328.435C76.4618 328.581 76.6123 328.714 76.7703 328.838C78.5328 330.223 81.232 330.394 114.044 332.48C115.463 332.57 116.939 332.664 118.473 332.762C126.18 333.182 137.996 333.932 147.686 334.547L147.719 334.549C150.391 334.719 152.9 334.878 155.117 335.017C165.273 335.661 174.8 336.091 176.057 335.984C180.349 335.447 181.187 334.695 192.599 319.445C198.357 311.819 203.592 304.302 204.43 302.691L205.791 299.791L205.895 253.181L206 206.571L205.058 204.638C204.011 202.383 201.812 200.772 199.404 200.235ZM83.6088 227.299C82.9806 227.943 82.4572 229.124 82.2478 230.306C82.1431 231.38 82.0384 251.355 82.1431 274.553C82.2477 314.29 82.3524 316.867 83.0853 317.941C83.5041 318.693 84.3417 319.445 85.0746 319.659C86.8544 320.411 173.125 325.459 174.905 324.922C175.742 324.707 176.894 323.955 177.418 323.311L178.465 322.237L178.569 279.278C178.674 249.1 178.569 235.783 178.255 234.602C178.046 233.742 177.313 232.668 176.789 232.239C176.057 231.702 170.926 231.272 153.337 230.198C140.983 229.554 121.823 228.373 110.935 227.621L110.568 227.598C87.0785 226.153 85.0505 226.028 83.9328 226.984C83.8271 227.075 83.7296 227.175 83.6229 227.284L83.6088 227.299ZM92.7175 215.163C94.602 213.337 107.899 203.886 109.783 203.027C112.61 201.738 117.112 201.738 132.293 202.92C139.308 203.564 150.929 204.423 157.944 204.853C194.277 207.621 194.277 207.645 194.274 209.111C194.274 209.123 194.274 209.136 194.274 209.149C194.274 209.686 184.956 217.526 181.187 220.21C180.244 220.855 178.674 221.499 177.627 221.607C175.219 222.036 92.8222 216.989 92.2987 216.452C91.9846 216.237 92.194 215.7 92.7175 215.163Z" fill="black"/>
<path d="M83.6088 227.299C82.9806 227.943 82.4572 229.124 82.2478 230.306C82.1431 231.38 82.0384 251.355 82.1431 274.553C82.2477 314.29 82.3524 316.867 83.0853 317.941C83.5041 318.693 84.3417 319.445 85.0746 319.659C86.8544 320.411 173.125 325.459 174.905 324.922C175.742 324.707 176.894 323.955 177.418 323.311L178.465 322.237L178.569 279.278C178.674 249.1 178.569 235.783 178.255 234.602C178.046 233.742 177.313 232.668 176.789 232.239C176.057 231.702 170.926 231.272 153.337 230.198C140.983 229.554 121.823 228.373 110.935 227.621L110.568 227.598C87.0785 226.153 85.0505 226.028 83.9328 226.984C83.8271 227.075 83.7296 227.175 83.6229 227.284L83.6088 227.299Z" fill="white"/>
<path d="M109.783 203.027C107.899 203.886 94.602 213.337 92.7175 215.163C92.194 215.7 91.9846 216.237 92.2987 216.452C92.8222 216.989 175.219 222.036 177.627 221.607C178.674 221.499 180.244 220.855 181.187 220.21C184.956 217.526 194.274 209.686 194.274 209.149L194.274 209.111C194.277 207.645 194.277 207.621 157.944 204.853C150.929 204.423 139.308 203.564 132.293 202.92C117.112 201.738 112.61 201.738 109.783 203.027Z" fill="black"/>
<path d="M114.642 185.01L114.641 185.008C111.265 185.071 107.996 185.256 103.648 187.44C100.276 189.135 96.1288 192.115 89.9766 196.579H89.9756C80.426 203.447 75.0697 207.303 72.0459 209.64C69.3753 211.704 67.0311 213.611 65.6191 216.707C64.7438 218.529 64.4982 220.292 64.3643 221.795C64.2203 223.411 64.1402 225.745 64.0879 229.231C63.9818 236.309 63.9819 249.209 64.0342 273.177V273.19L64.0811 287.102C64.1366 304.652 64.1664 314.547 64.3965 320.198C64.508 322.937 64.6818 325.282 65.0938 327.188C65.5654 329.371 66.4671 331.549 68.2959 333.429L68.6748 333.801C68.9701 334.078 69.2658 334.326 69.5039 334.517L69.9863 334.888C70.0322 334.922 70.0613 334.945 70.0889 334.966C70.114 334.985 70.1308 334.996 70.1416 335.005L70.3164 335.16C70.4415 335.271 70.7991 335.593 71.2109 335.916V335.917C74.5161 338.513 78.4376 338.929 82.9092 339.355C86.7937 339.726 92.8708 340.142 102.546 340.765L113.473 341.462C114.892 341.552 116.368 341.646 117.901 341.743L117.982 341.748C121.811 341.957 126.668 342.249 131.78 342.564L147.116 343.529C147.12 343.53 147.123 343.529 147.129 343.529L147.148 343.531C149.818 343.701 152.329 343.859 154.548 343.998L154.547 343.999C159.67 344.324 164.644 344.595 168.512 344.772C170.442 344.861 172.125 344.928 173.425 344.965C174.316 344.99 175.525 345.022 176.447 344.976L176.823 344.951L177.174 344.914C178.382 344.763 180.366 344.496 182.518 343.535C184.714 342.554 186.462 341.147 188.006 339.611C190.759 336.872 194.29 332.206 199.781 324.868L200.876 323.411C203.413 320.02 205.804 316.717 207.722 313.989C209.593 311.328 211.412 308.661 212.259 307.133L212.415 306.843L212.577 306.515L213.938 303.615L214.791 299.812L214.896 253.201L215 206.592L214.09 202.628L213.147 200.694H213.146C210.764 195.703 206.131 192.513 201.363 191.45L200.549 191.308C199.424 191.163 180.611 189.633 159.179 187.934L159.138 187.931C148.349 187.125 138.012 186.371 130.062 185.832C126.091 185.563 122.689 185.345 120.115 185.201C117.958 185.081 115.858 184.98 114.642 185.01Z" stroke="black" stroke-width="18" stroke-linejoin="bevel"/>
<path fill-rule="evenodd" clip-rule="evenodd" d="M304.759 68.8495C303.84 68.7315 283.612 67.0797 259.821 65.192C236.146 63.4222 214.539 61.8884 211.895 62.0064C205.574 62.1244 204.54 62.5963 190.403 72.861C169.256 88.081 167.647 89.2608 166.842 91.1486C166.038 92.6824 165.923 96.2219 166.038 148.961C166.059 154.585 166.075 159.663 166.089 164.249C166.212 203.067 166.223 206.69 168.02 208.382C168.205 208.556 168.409 208.71 168.634 208.879C168.826 209.024 169.033 209.179 169.256 209.369C169.387 209.481 169.507 209.588 169.62 209.689C169.8 209.849 169.965 209.996 170.139 210.132C172.074 211.653 175.037 211.842 211.056 214.133C212.614 214.232 214.234 214.335 215.918 214.442C224.378 214.904 237.349 215.728 247.986 216.404L248.022 216.406C250.955 216.592 253.71 216.767 256.144 216.92C267.292 217.628 277.751 218.1 279.13 217.982C283.842 217.392 284.761 216.566 297.289 199.812C303.61 191.435 309.357 183.176 310.276 181.407L311.77 178.221L311.885 127.016L312 75.8106L310.966 73.6869C309.816 71.2092 307.403 69.4394 304.759 68.8495ZM177.646 98.5816C176.956 99.2895 176.382 100.587 176.152 101.885C176.037 103.065 175.922 125.01 176.037 150.495C176.152 194.149 176.267 196.981 177.071 198.161C177.531 198.986 178.45 199.812 179.255 200.048C181.209 200.874 275.912 206.419 277.866 205.83C278.785 205.594 280.049 204.768 280.624 204.06L281.773 202.88L281.888 155.686C282.003 122.532 281.888 107.902 281.543 106.605C281.313 105.661 280.509 104.481 279.934 104.009C279.13 103.419 273.498 102.947 254.19 101.767C240.628 101.059 219.596 99.7614 207.643 98.9355L207.24 98.9107C181.455 97.3225 179.228 97.1854 178.001 98.2362C177.885 98.3355 177.778 98.4454 177.661 98.5657L177.646 98.5816ZM187.645 85.2493C189.714 83.2436 204.31 72.861 206.378 71.9171C209.482 70.5013 214.424 70.5013 231.089 71.7991C238.789 72.507 251.546 73.4509 259.247 73.9228C299.131 76.9644 299.131 76.9902 299.128 78.6005C299.128 78.6143 299.128 78.6282 299.128 78.6422C299.128 79.2321 288.899 87.845 284.761 90.7946C283.727 91.5025 282.003 92.2104 280.854 92.3284C278.21 92.8004 187.76 87.2551 187.185 86.6651C186.84 86.4292 187.07 85.8393 187.645 85.2493Z" fill="black"/>
<path d="M177.646 98.5816C176.956 99.2895 176.382 100.587 176.152 101.885C176.037 103.065 175.922 125.01 176.037 150.495C176.152 194.149 176.267 196.981 177.071 198.161C177.531 198.986 178.45 199.812 179.255 200.048C181.209 200.874 275.912 206.419 277.866 205.83C278.785 205.594 280.049 204.768 280.624 204.06L281.773 202.88L281.888 155.686C282.003 122.532 281.888 107.902 281.543 106.605C281.313 105.661 280.509 104.481 279.934 104.009C279.13 103.419 273.498 102.947 254.19 101.767C240.628 101.059 219.596 99.7614 207.643 98.9355L207.24 98.9107C181.455 97.3225 179.228 97.1854 178.001 98.2362C177.885 98.3355 177.778 98.4454 177.661 98.5657L177.646 98.5816Z" fill="white"/>
<path d="M206.378 71.9171C204.31 72.861 189.714 83.2436 187.645 85.2493C187.07 85.8393 186.84 86.4292 187.185 86.6651C187.76 87.2551 278.21 92.8004 280.854 92.3284C282.003 92.2104 283.727 91.5025 284.761 90.7946C288.899 87.845 299.128 79.2321 299.128 78.6422L299.128 78.6005C299.131 76.9902 299.131 76.9644 259.247 73.9228C251.546 73.4509 238.789 72.507 231.089 71.7991C214.424 70.5013 209.482 70.5013 206.378 71.9171Z" fill="black"/>
<path d="M211.729 53.0107L211.728 53.0078C208.07 53.0761 204.637 53.2752 200.037 55.5879C196.408 57.4128 191.914 60.6414 185.115 65.5781C174.643 73.1149 168.789 77.3328 165.488 79.8857C162.548 82.16 160.148 84.137 158.7 87.3096C157.801 89.1721 157.541 90.9898 157.396 92.6143C157.242 94.3531 157.154 96.8875 157.097 100.718C156.98 108.483 156.981 122.646 157.038 148.98V148.994L157.089 164.278C157.15 183.57 157.183 194.417 157.435 200.604C157.557 203.61 157.746 206.119 158.181 208.131C158.673 210.412 159.601 212.64 161.466 214.557L161.852 214.936C162.458 215.507 163.07 215.956 163.218 216.067H163.219C163.321 216.145 163.364 216.177 163.4 216.206C163.409 216.213 163.416 216.217 163.421 216.221C163.471 216.264 163.527 216.314 163.637 216.411V216.412C163.743 216.506 163.978 216.718 164.27 216.96L164.577 217.208C167.969 219.874 172 220.329 176.96 220.803C181.211 221.209 187.868 221.665 198.487 222.349L210.484 223.115C212.042 223.214 213.662 223.317 215.346 223.424L215.427 223.429C223.837 223.888 236.761 224.708 247.415 225.385L247.414 225.386H247.423C247.425 225.386 247.427 225.387 247.43 225.387C247.433 225.387 247.437 225.386 247.44 225.387L247.449 225.388H247.451C250.382 225.574 253.139 225.748 255.574 225.901L255.573 225.902C261.193 226.259 266.648 226.557 270.888 226.751C273.004 226.848 274.845 226.921 276.266 226.962C277.404 226.995 278.92 227.033 279.896 226.949L280.248 226.912C281.561 226.748 283.629 226.466 285.865 225.467C288.146 224.448 289.979 222.978 291.629 221.336C294.598 218.379 298.435 213.31 304.497 205.202V205.201C307.71 200.943 310.777 196.714 313.172 193.306C315.377 190.167 317.462 187.097 318.263 185.556L318.425 185.229L319.918 182.043L320.771 178.241L320.885 127.036L321 75.8311L320.091 71.8701L319.057 69.7461H319.056C316.573 64.5321 311.725 61.1825 306.72 60.0654L305.905 59.9229L304.575 59.7959C299.5 59.3453 281.14 57.8549 260.533 56.2197L260.492 56.2168L251.736 55.5664C243.141 54.9324 235.123 54.3562 228.581 53.9121C224.223 53.6163 220.492 53.3775 217.672 53.2197C215.276 53.0857 213.011 52.9782 211.729 53.0107Z" stroke="black" stroke-width="18" stroke-linejoin="bevel"/>
</svg>
