<svg width="271" height="255" viewBox="0 0 271 255" fill="none" xmlns="http://www.w3.org/2000/svg">
<path d="M181.688 118.354C184.922 118.354 224.306 116.657 230.775 120.7C237.245 124.743 270.833 180.354 270.479 187.089C270.123 193.827 236.979 254.854 236.979 254.854C236.701 254.853 149.745 254.511 147.98 253.854C146.224 253.193 123.466 215.393 125.082 208.922C126.701 202.45 178.448 118.363 181.688 118.354Z" fill="black"/>
<path d="M187 187.405C187 184.292 219.708 132 223.796 132C227.885 132 253 183.67 253 187.405C253 191.14 223.796 239.617 220.876 238.994C217.956 238.372 187 190.518 187 187.405Z" fill="white"/>
<path d="M105.936 3.70096C111.997 -1.88812 174.326 -0.532878 180.326 3.70096C186.326 7.937 227.231 54.4558 215.91 77.906C204.589 101.357 125.342 254.185 103.508 254.187C81.6745 254.187 65.5016 254.188 49.3262 254.187C33.1507 254.186 -0.000374676 200.01 3.17599e-09 182.22C0.000833036 164.432 99.872 9.29552 105.936 3.70096Z" fill="black"/>
<path d="M74 197.5C74.3219 202.095 100.099 240.854 103.689 240.908C107.28 240.962 206.759 77.3534 207.187 71.8105C207.614 66.2677 183.354 22.0107 178.752 22.9515C174.151 23.8922 73.6781 192.905 74 197.5Z" fill="white"/>
</svg>
