<svg width="467" height="466" viewBox="0 0 467 466" fill="none" xmlns="http://www.w3.org/2000/svg">
<path d="M227.584 0.0690965C207.775 1.10844 192.307 3.12602 177.634 6.67202C145.415 14.4365 119.125 26.6641 92.7749 46.0447C74.1279 59.7396 53.1576 81.7492 39.6462 101.802C12.501 142.031 -1.25503 189.046 0.0900021 237.223C0.640242 258.132 2.53551 272.438 7.18199 290.718C15.3745 323.366 29.9864 352.468 51.4458 379.062C58.7823 388.111 76.6957 405.902 85.7441 413.116C144.559 459.826 219.758 476.272 292.206 458.175C363.677 440.323 423.53 388.111 450.431 320.37C461.803 291.635 467.061 263.573 466.999 231.415C466.999 214.051 465.838 202.802 462.292 184.644C452.754 136.101 426.954 91.3479 389.049 57.5998C352.672 25.2579 304.128 4.83785 254.179 0.986164C244.947 0.25251 232.597 -0.175455 227.584 0.0690965ZM313.605 60.2287C321.919 61.6349 326.077 63.0411 332.802 66.5871C345.458 73.3122 354.384 83.0943 358.724 95.0161C361.842 103.453 362.576 109.261 362.209 121.672C361.781 135.978 360.375 144.049 350.838 185.256C339.588 234.227 337.143 265.407 342.278 295.915C346.008 318.169 353.895 329.969 370.769 338.65C377.494 342.135 381.957 346.476 383.18 350.817C384.341 355.096 383.73 361.883 381.834 366.101C379.695 370.687 375.048 375.211 370.524 377.045C367.528 378.207 365.939 378.451 360.253 378.39C354.628 378.39 352.794 378.084 348.759 376.739C338.366 373.132 329.073 367.141 322.47 359.804C311.343 347.454 301.744 325.934 297.403 303.741C296.67 299.95 295.936 296.832 295.752 296.893C295.569 296.893 293.613 299.706 291.351 303.129C279.49 321.104 260.782 341.463 242.868 355.83C217.741 376.067 186.255 389.762 157.887 392.88C149.45 393.797 136.06 393.246 128.235 391.657C103.413 386.705 83.7877 371.726 76.1454 351.978C70.3985 337.244 70.5819 317.008 76.5734 298.972C82.5038 281.242 92.7749 266.019 109.894 249.573C129.886 230.314 154.035 215.702 185.093 204.086C206.552 196.077 230.396 190.391 254.179 187.64C263.044 186.601 285.298 186.173 296.608 186.784L302.111 187.09L303.823 181.282C311.465 156.093 316.906 126.135 315.439 116.965C313.972 107.244 310.181 104.431 297.831 103.82C279.795 102.903 249.838 112.196 215.784 129.253C191.268 141.542 169.747 155.726 149.633 172.967C139.362 181.771 134.043 185.256 129.702 186.173C125.667 187.029 121.571 186.539 118.208 184.828C114.479 182.932 109.466 177.797 107.631 174.006C106.164 171.01 105.92 169.849 105.92 165.08C105.92 160.189 106.164 159.15 107.876 155.481C113.134 144.354 142.602 119.594 170.42 102.903C209.12 79.7317 254.24 62.7965 286.582 59.4339C293.551 58.7003 307.063 59.0671 313.605 60.2287Z" fill="url(#paint0_linear_434_84589)"/>
<path d="M255.585 231.17C229.968 233.921 205.085 241.197 182.158 252.569C148.777 269.137 124.567 293.103 119.003 315.113C117.23 322.021 117.536 331.192 119.676 335.533C122.549 341.585 129.091 346.171 138.078 348.616C143.886 350.144 156.664 350.022 164.673 348.31C187.6 343.419 209.242 330.397 232.719 307.531C254.974 285.827 274.721 258.377 284.503 235.511C285.665 232.882 286.582 230.559 286.582 230.437C286.582 229.825 262.371 230.375 255.585 231.17Z" fill="url(#paint1_linear_434_84589)"/>
<defs>
<linearGradient id="paint0_linear_434_84589" x1="233.5" y1="3.05176e-05" x2="233.5" y2="465.364" gradientUnits="userSpaceOnUse">
<stop stop-color="#F72585"/>
<stop offset="1" stop-color="#7209B7"/>
</linearGradient>
<linearGradient id="paint1_linear_434_84589" x1="202.215" y1="230.175" x2="202.215" y2="349.684" gradientUnits="userSpaceOnUse">
<stop stop-color="#F72585"/>
<stop offset="1" stop-color="#7209B7"/>
</linearGradient>
</defs>
</svg>
